<svg width="156" height="37" viewBox="0 0 156 37" fill="none" xmlns="http://www.w3.org/2000/svg">
<path d="M150.625 13.1562C151.304 13.1562 151.947 13.2877 152.553 13.5518H152.552C153.153 13.8035 153.68 14.1543 154.13 14.6045C154.58 15.0545 154.931 15.5808 155.183 16.1816L155.275 16.4102C155.478 16.9482 155.578 17.5152 155.578 18.1094V18.3848L155.368 18.4189L153.446 18.7314L153.156 18.7783V18C153.156 17.6471 153.089 17.3223 152.958 17.0225L152.957 17.0195C152.823 16.7037 152.643 16.434 152.417 16.208C152.191 15.982 151.921 15.802 151.605 15.668L151.603 15.667C151.303 15.5358 150.978 15.4688 150.625 15.4688H149.5C149.14 15.4688 148.802 15.5224 148.485 15.6279L148.484 15.627C148.181 15.7316 147.92 15.8836 147.696 16.0791L147.691 16.083C147.47 16.2677 147.294 16.4939 147.163 16.7646C147.036 17.0281 146.969 17.3341 146.969 17.6875C146.969 18.2003 147.084 18.5981 147.296 18.8994C147.523 19.212 147.824 19.4812 148.203 19.7051L148.513 19.8711C148.83 20.0299 149.177 20.17 149.555 20.291C150.087 20.4475 150.624 20.6148 151.166 20.792L151.583 20.9238C151.997 21.0604 152.402 21.2116 152.798 21.3779C153.35 21.6054 153.841 21.8997 154.269 22.2607L154.432 22.4023C154.802 22.7447 155.103 23.1581 155.334 23.6396L155.429 23.8535C155.635 24.3649 155.734 24.9682 155.734 25.6562C155.734 26.3367 155.597 26.968 155.319 27.5459L155.318 27.5479C155.043 28.1093 154.668 28.5945 154.194 29.002C153.722 29.4081 153.175 29.7248 152.556 29.9531L152.553 29.9541C151.941 30.1725 151.298 30.2812 150.625 30.2812H149.344C148.666 30.2812 148.014 30.155 147.391 29.9033L147.386 29.9014C146.776 29.6399 146.235 29.285 145.765 28.8369L145.763 28.835C145.303 28.3864 144.932 27.8614 144.649 27.2627L144.647 27.2598C144.372 26.6535 144.234 26.0087 144.234 25.3281V24.4746L144.444 24.4404L146.366 24.1279L146.656 24.0811V25.4375C146.656 25.7865 146.726 26.1144 146.866 26.4238C147.019 26.7286 147.22 26.9945 147.467 27.2227C147.715 27.4515 148.002 27.6336 148.329 27.7686C148.653 27.9019 148.991 27.9688 149.344 27.9688H150.625C150.985 27.9688 151.329 27.9148 151.657 27.8086C151.987 27.702 152.273 27.5536 152.52 27.3643C152.773 27.1668 152.968 26.934 153.106 26.666L153.109 26.6602C153.253 26.3993 153.328 26.0981 153.328 25.75C153.328 25.2128 153.211 24.7975 152.997 24.4854C152.77 24.1543 152.465 23.8769 152.078 23.6543L152.072 23.6504C151.688 23.4137 151.24 23.2193 150.727 23.0684L150.721 23.0664C150.203 22.9006 149.669 22.7395 149.119 22.584L149.115 22.583C148.557 22.4145 148.009 22.2244 147.472 22.0137H147.47C146.927 21.7967 146.437 21.5135 146 21.1641L145.995 21.1602V21.1592C145.561 20.7917 145.211 20.337 144.947 19.7979C144.676 19.2437 144.547 18.5675 144.547 17.7812C144.547 17.1873 144.647 16.6343 144.852 16.125L144.945 15.9092C145.209 15.3388 145.567 14.8479 146.02 14.4395C146.415 14.083 146.864 13.799 147.366 13.5869L147.585 13.5C148.187 13.2704 148.826 13.1562 149.5 13.1562H150.625Z" fill="black" stroke="black" stroke-width="0.5"/>
<path d="M132.038 13.4688L132.096 13.6377L136.093 25.2559L140.076 13.6377L140.134 13.4688H142.588L142.47 13.8027L136.798 29.8027L136.739 29.9688H135.433L135.374 29.8027L129.702 13.8027L129.584 13.4688H132.038Z" fill="black" stroke="black" stroke-width="0.5"/>
<path d="M121.719 15.4688C121.367 15.4688 121.036 15.5343 120.725 15.666C120.419 15.7997 120.154 15.9808 119.927 16.208C119.701 16.434 119.521 16.7037 119.387 17.0195L119.386 17.0225C119.255 17.3223 119.188 17.6471 119.188 18V20.125H125.531V18C125.531 17.6471 125.464 17.3223 125.333 17.0225L125.332 17.0195C125.198 16.7037 125.018 16.434 124.792 16.208C124.566 15.982 124.296 15.802 123.98 15.668L123.978 15.667C123.678 15.5358 123.353 15.4688 123 15.4688H121.719ZM127.953 25.3281C127.953 26.007 127.822 26.6505 127.558 27.2559C127.306 27.8567 126.955 28.383 126.505 28.833C126.055 29.283 125.528 29.6393 124.928 29.9014L124.925 29.9023C124.32 30.1552 123.678 30.2812 123 30.2812H121.719C121.041 30.2812 120.399 30.1552 119.794 29.9023L119.791 29.9014C119.19 29.6393 118.664 29.283 118.214 28.833C117.764 28.3831 117.408 27.8564 117.146 27.2559L117.145 27.2529C116.892 26.6482 116.766 26.0057 116.766 25.3281V18.1094C116.766 17.4318 116.892 16.7893 117.145 16.1846L117.146 16.1816C117.408 15.5811 117.764 15.0544 118.214 14.6045C118.664 14.1545 119.19 13.8034 119.791 13.5518L120.02 13.459C120.558 13.2568 121.125 13.1562 121.719 13.1562H123C123.679 13.1562 124.322 13.2877 124.928 13.5518H124.927C125.528 13.8035 126.055 14.1543 126.505 14.6045C126.955 15.0545 127.306 15.5808 127.558 16.1816L127.65 16.4102C127.853 16.9482 127.953 17.5152 127.953 18.1094V22.125H119.188V25.4375C119.188 25.7894 119.254 26.1196 119.386 26.4307L119.494 26.6523C119.612 26.8668 119.756 27.0589 119.927 27.2295C120.154 27.4568 120.42 27.6368 120.726 27.7705C121.037 27.902 121.367 27.9688 121.719 27.9688H123C123.353 27.9688 123.678 27.9017 123.978 27.7705L123.98 27.7695C124.296 27.6355 124.566 27.4555 124.792 27.2295C125.019 27.0022 125.199 26.7363 125.333 26.4307C125.465 26.1196 125.531 25.7894 125.531 25.4375V24.0811L125.821 24.1279L127.743 24.4404L127.953 24.4746V25.3281Z" fill="black" stroke="black" stroke-width="0.5"/>
<path d="M107.344 7.0625C108.137 7.0625 108.885 7.2144 109.585 7.52051L109.584 7.52148C110.288 7.8147 110.904 8.2221 111.427 8.74512C111.949 9.26785 112.356 9.88289 112.649 10.5869H112.651C112.957 11.2866 113.109 12.0348 113.109 12.8281V24.2188C113.109 25.0121 112.957 25.7603 112.651 26.46C112.358 27.1543 111.949 27.7636 111.427 28.2861C110.903 28.8095 110.288 29.2227 109.583 29.5264L109.582 29.5273C108.883 29.8222 108.136 29.9688 107.344 29.9688H100V7.0625H107.344ZM102.516 27.5469H107.25C107.718 27.5469 108.147 27.4597 108.54 27.2871L108.542 27.2861C108.952 27.1106 109.305 26.8727 109.604 26.5732L109.607 26.5703C109.917 26.2701 110.159 25.9219 110.334 25.5244C110.507 25.1202 110.594 24.6858 110.594 24.2188V12.8281C110.594 12.3603 110.507 11.9312 110.334 11.5381L110.333 11.5361C110.158 11.1284 109.916 10.7758 109.607 10.4766L109.602 10.4707C109.302 10.1618 108.95 9.91988 108.542 9.74512L108.54 9.74414C108.147 9.57159 107.718 9.48438 107.25 9.48438H102.516V27.5469Z" fill="black" stroke="black" stroke-width="0.5"/>
<path d="M93.8438 29.7188V18C93.8438 17.6146 93.7708 17.2552 93.625 16.9219C93.4792 16.5781 93.2812 16.2812 93.0312 16.0312C92.7812 15.7812 92.4844 15.5833 92.1406 15.4375C91.8073 15.2917 91.4479 15.2188 91.0625 15.2188H89.7812C89.3958 15.2188 89.0312 15.2917 88.6875 15.4375C88.3542 15.5833 88.0625 15.7812 87.8125 16.0312C87.5625 16.2812 87.3646 16.5781 87.2188 16.9219C87.0729 17.2552 87 17.6146 87 18V29.7188H85.0781V13.7188H85.7188L86.7656 15.3438C87.2031 14.75 87.75 14.2812 88.4062 13.9375C89.0729 13.5833 89.7969 13.4062 90.5781 13.4062H91.0625C91.7083 13.4062 92.3177 13.5312 92.8906 13.7812C93.4635 14.0208 93.9635 14.3542 94.3906 14.7812C94.8177 15.2083 95.151 15.7083 95.3906 16.2812C95.6406 16.8542 95.7656 17.4635 95.7656 18.1094V29.7188H93.8438Z" fill="black"/>
<path d="M81.2344 25.3281C81.2344 25.974 81.1094 26.5833 80.8594 27.1562C80.6198 27.7292 80.2865 28.2292 79.8594 28.6562C79.4323 29.0833 78.9323 29.4219 78.3594 29.6719C77.7865 29.9115 77.1771 30.0312 76.5312 30.0312H75.25C74.6042 30.0312 73.9948 29.9115 73.4219 29.6719C72.849 29.4219 72.349 29.0833 71.9219 28.6562C71.4948 28.2292 71.1562 27.7292 70.9062 27.1562C70.6667 26.5833 70.5469 25.974 70.5469 25.3281V18.1094C70.5469 17.4635 70.6667 16.8542 70.9062 16.2812C71.1562 15.7083 71.4948 15.2083 71.9219 14.7812C72.349 14.3542 72.849 14.0208 73.4219 13.7812C73.9948 13.5312 74.6042 13.4062 75.25 13.4062H76.5312C77.1771 13.4062 77.7865 13.5312 78.3594 13.7812C78.9323 14.0208 79.4323 14.3542 79.8594 14.7812C80.2865 15.2083 80.6198 15.7083 80.8594 16.2812C81.1094 16.8542 81.2344 17.4635 81.2344 18.1094V21.875H72.4688V25.4375C72.4688 25.8229 72.5417 26.1875 72.6875 26.5312C72.8333 26.8646 73.0312 27.1562 73.2812 27.4062C73.5312 27.6562 73.8229 27.8542 74.1562 28C74.5 28.1458 74.8646 28.2188 75.25 28.2188H76.5312C76.9167 28.2188 77.276 28.1458 77.6094 28C77.9531 27.8542 78.25 27.6562 78.5 27.4062C78.75 27.1562 78.9479 26.8646 79.0938 26.5312C79.2396 26.1875 79.3125 25.8229 79.3125 25.4375V24.375L81.2344 24.6875V25.3281ZM79.3125 18C79.3125 17.6146 79.2396 17.2552 79.0938 16.9219C78.9479 16.5781 78.75 16.2812 78.5 16.0312C78.25 15.7812 77.9531 15.5833 77.6094 15.4375C77.276 15.2917 76.9167 15.2188 76.5312 15.2188H75.25C74.8646 15.2188 74.5 15.2917 74.1562 15.4375C73.8229 15.5833 73.5312 15.7812 73.2812 16.0312C73.0312 16.2812 72.8333 16.5781 72.6875 16.9219C72.5417 17.2552 72.4688 17.6146 72.4688 18V20.375H79.3125V18Z" fill="black"/>
<path d="M66.7031 25.3281C66.7031 25.974 66.5781 26.5833 66.3281 27.1562C66.0885 27.7292 65.7552 28.2292 65.3281 28.6562C64.901 29.0833 64.401 29.4219 63.8281 29.6719C63.2552 29.9115 62.6458 30.0312 62 30.0312H61.5156C60.7969 30.0312 60.1302 29.8854 59.5156 29.5938C58.901 29.3021 58.375 28.8958 57.9375 28.375V36.125H56.0156V13.7188H56.6562L57.7031 15.3438C58.1406 14.75 58.6875 14.2812 59.3438 13.9375C60.0104 13.5833 60.7344 13.4062 61.5156 13.4062H62C62.6458 13.4062 63.2552 13.5312 63.8281 13.7812C64.401 14.0208 64.901 14.3542 65.3281 14.7812C65.7552 15.2083 66.0885 15.7083 66.3281 16.2812C66.5781 16.8542 66.7031 17.4635 66.7031 18.1094V25.3281ZM64.7812 18C64.7812 17.6146 64.7083 17.2552 64.5625 16.9219C64.4167 16.5781 64.2188 16.2812 63.9688 16.0312C63.7188 15.7812 63.4219 15.5833 63.0781 15.4375C62.7448 15.2917 62.3854 15.2188 62 15.2188H60.7188C60.3333 15.2188 59.9688 15.2917 59.625 15.4375C59.2917 15.5833 59 15.7812 58.75 16.0312C58.5 16.2812 58.3021 16.5781 58.1562 16.9219C58.0104 17.2552 57.9375 17.6146 57.9375 18V25.4375C57.9375 25.8229 58.0104 26.1875 58.1562 26.5312C58.3021 26.8646 58.5 27.1562 58.75 27.4062C59 27.6562 59.2917 27.8542 59.625 28C59.9688 28.1458 60.3333 28.2188 60.7188 28.2188H62C62.3854 28.2188 62.7448 28.1458 63.0781 28C63.4219 27.8542 63.7188 27.6562 63.9688 27.4062C64.2188 27.1562 64.4167 26.8646 64.5625 26.5312C64.7083 26.1875 64.7812 25.8229 64.7812 25.4375V18Z" fill="black"/>
<path d="M51.8438 24.5312C51.8438 25.2917 51.6979 26.0052 51.4062 26.6719C51.125 27.3385 50.7344 27.9219 50.2344 28.4219C49.7344 28.9219 49.151 29.3177 48.4844 29.6094C47.8177 29.8906 47.1042 30.0312 46.3438 30.0312H44.75C43.9896 30.0312 43.2708 29.8906 42.5938 29.6094C41.9271 29.3177 41.3438 28.9219 40.8438 28.4219C40.3438 27.9219 39.9479 27.3385 39.6562 26.6719C39.375 26.0052 39.2344 25.2917 39.2344 24.5312V12.5C39.2344 11.7396 39.375 11.026 39.6562 10.3594C39.9479 9.69271 40.3438 9.10938 40.8438 8.60938C41.3438 8.10938 41.9271 7.71875 42.5938 7.4375C43.2708 7.14583 43.9896 7 44.75 7H46.3438C47.1042 7 47.8177 7.14583 48.4844 7.4375C49.151 7.71875 49.7344 8.10938 50.2344 8.60938C50.7344 9.10938 51.125 9.69271 51.4062 10.3594C51.6979 11.026 51.8438 11.7396 51.8438 12.5V24.5312ZM49.8281 12.5C49.8281 12 49.7344 11.5365 49.5469 11.1094C49.3594 10.6719 49.1042 10.2917 48.7812 9.96875C48.4583 9.64583 48.0781 9.39062 47.6406 9.20312C47.2135 9.01562 46.75 8.92188 46.25 8.92188H44.8438C44.3438 8.92188 43.875 9.01562 43.4375 9.20312C43.0104 9.39062 42.6302 9.64583 42.2969 9.96875C41.974 10.2917 41.7188 10.6719 41.5312 11.1094C41.3438 11.5365 41.25 12 41.25 12.5V24.5312C41.25 25.0312 41.3438 25.5 41.5312 25.9375C41.7188 26.3646 41.974 26.7448 42.2969 27.0781C42.6302 27.401 43.0104 27.6562 43.4375 27.8438C43.875 28.0312 44.3438 28.125 44.8438 28.125H46.25C46.75 28.125 47.2135 28.0312 47.6406 27.8438C48.0781 27.6562 48.4583 27.401 48.7812 27.0781C49.1042 26.7448 49.3594 26.3646 49.5469 25.9375C49.7344 25.5 49.8281 25.0312 49.8281 24.5312V12.5Z" fill="black"/>
<path d="M3 7H9V29H3V7Z" fill="url(#paint0_linear_9_40)"/>
<path d="M25 7H31V29H25V7Z" fill="url(#paint1_linear_9_40)"/>
<path d="M9 2H25V7H9V2Z" fill="url(#paint2_linear_9_40)"/>
<path d="M9 29H25V34H9V29Z" fill="url(#paint3_linear_9_40)"/>
<path d="M29.0704 36L0 0H4.92958L34 36H29.0704Z" fill="black"/>
<defs>
<linearGradient id="paint0_linear_9_40" x1="17" y1="2" x2="17" y2="34" gradientUnits="userSpaceOnUse">
<stop stop-color="#8671F5"/>
<stop offset="1" stop-color="#64F5B3"/>
</linearGradient>
<linearGradient id="paint1_linear_9_40" x1="17" y1="2" x2="17" y2="34" gradientUnits="userSpaceOnUse">
<stop stop-color="#8671F5"/>
<stop offset="1" stop-color="#64F5B3"/>
</linearGradient>
<linearGradient id="paint2_linear_9_40" x1="17" y1="2" x2="17" y2="34" gradientUnits="userSpaceOnUse">
<stop stop-color="#8671F5"/>
<stop offset="1" stop-color="#64F5B3"/>
</linearGradient>
<linearGradient id="paint3_linear_9_40" x1="17" y1="2" x2="17" y2="34" gradientUnits="userSpaceOnUse">
<stop stop-color="#8671F5"/>
<stop offset="1" stop-color="#64F5B3"/>
</linearGradient>
</defs>
</svg>
